{
  "accessors": [
    {
      "bufferView": 0,
      "componentType": 5125,
      "count": 320046,
      "type": "SCALAR"
    },
    {
      "bufferView": 1,
      "componentType": 5126,
      "count": 142686,
      "max": [
        396.520568847656,
        102.220993041992,
        29.9099807739258
      ],
      "min": [
        -438.623352050781,
        -158.112243652344,
        -129.340515136719
      ],
      "type": "VEC3"
    },
    {
      "bufferView": 2,
      "componentType": 5126,
      "count": 142686,
      "type": "VEC3"
    },
    {
      "bufferView": 3,
      "componentType": 5126,
      "count": 142686,
      "type": "VEC2"
    }
  ],
  "asset": {
    "generator": "Adobe Substance 3D Painter 7.2.1",
    "version": "2.0"
  },
  "bufferViews": [
    {
      "buffer": 0,
      "byteLength": 1280184,
      "target": 34963
    },
    {
      "buffer": 0,
      "byteLength": 1712232,
      "byteOffset": 1280184,
      "target": 34962
    },
    {
      "buffer": 0,
      "byteLength": 1712232,
      "byteOffset": 2992416,
      "target": 34962
    },
    {
      "buffer": 0,
      "byteLength": 1141488,
      "byteOffset": 4704648,
      "target": 34962
    }
  ],
  "buffers": [
    {
      "byteLength": 5846136,
      "uri": "https://github.com/jcritchley/Data/raw/master/test/Untitled.bin"
    }
  ],
  "images": [
    {
      "uri": "thegoldenbridgevietnam_baseColor.png"
    },
    {
      "uri": "thegoldenbridgevietnam_occlusionRoughnessMetallic.png"
    },
    {
      "uri": "thegoldenbridgevietnam_normal.png"
    }
  ],
  "materials": [
    {
      "alphaMode": "OPAQUE",
      "name": "thegoldenbridgevietnam",
      "normalTexture": {
        "index": 2
      },
      "occlusionTexture": {
        "index": 1
      },
      "pbrMetallicRoughness": {
        "baseColorTexture": {
          "index": 0
        },
        "metallicRoughnessTexture": {
          "index": 1
        }
      }
    }
  ],
  "meshes": [
    {
      "name": "The Golden Bridge",
      "primitives": [
        {
          "attributes": {
            "NORMAL": 2,
            "POSITION": 1,
            "TEXCOORD_0": 3
          },
          "indices": 0,
          "material": 0,
          "mode": 4
        }
      ]
    }
  ],
  "nodes": [
    {
      "children": [
        1
      ],
      "name": "RootNode"
    },
    {
      "children": [
        2
      ],
      "name": "The Golden Bridge",
      "rotation": [
        -0.70710676908493,
        0.0,
        0.0,
        0.70710676908493
      ],
      "scale": [
        0.158899992704391,
        0.158899992704391,
        0.158899992704391
      ],
      "translation": [
        3.34506130218506,
        18.4243946075439,
        -4.44055795669556
      ]
    },
    {
      "mesh": 0,
      "name": "The Golden Bridge"
    }
  ],
  "samplers": [
    {
      "magFilter": 9729,
      "minFilter": 9985,
      "wrapS": 10497,
      "wrapT": 10497
    }
  ],
  "scene": 0,
  "scenes": [
    {
      "name": "Scene",
      "nodes": [
        0
      ]
    }
  ],
  "textures": [
    {
      "sampler": 0,
      "source": 0
    },
    {
      "sampler": 0,
      "source": 1
    },
    {
      "sampler": 0,
      "source": 2
    }
  ]
}